<svg viewBox="0 0 200 187" xmlns="http://www.w3.org/2000/svg" xmlns:xlink="http://www.w3.org/1999/xlink">
    <mask id="mask0" mask-type="alpha">
        <path d="M60.2,-50.7C69.1,-36.9,61.2,-12.4,54.5,10.6C47.8,33.6,42.3,55,27.6,65C12.9,75,-10.9,73.6,-29.7,63.7C-48.5,53.9,-62.2,35.6,-68,14.3C-73.8,-7,-71.7,-31.3,-59.1,-45.9C-46.4,-60.6,-23.2,-65.7,1.2,-66.6C25.7,-67.6,51.3,-64.5,60.2,-50.7Z"/>
    </mask>
    <g mask="url(#mask0)">
        <path d="M60.2,-50.7C69.1,-36.9,61.2,-12.4,54.5,10.6C47.8,33.6,42.3,55,27.6,65C12.9,75,-10.9,73.6,-29.7,63.7C-48.5,53.9,-62.2,35.6,-68,14.3C-73.8,-7,-71.7,-31.3,-59.1,-45.9C-46.4,-60.6,-23.2,-65.7,1.2,-66.6C25.7,-67.6,51.3,-64.5,60.2,-50.7Z"/>
        <image href=""/>
    </g>
</svg>
